<svg width="25" height="24" viewBox="0 0 25 24" fill="none" xmlns="http://www.w3.org/2000/svg">
<path d="M12.5 5.9C12.7758 5.9 13.0489 5.95432 13.3036 6.05985C13.5584 6.16539 13.7899 6.32007 13.9849 6.51508C14.1799 6.71008 14.3346 6.94158 14.4401 7.19636C14.5457 7.45115 14.6 7.72422 14.6 8C14.6 8.27578 14.5457 8.54885 14.4401 8.80364C14.3346 9.05842 14.1799 9.28992 13.9849 9.48492C13.7899 9.67993 13.5584 9.83461 13.3036 9.94015C13.0489 10.0457 12.7758 10.1 12.5 10.1C11.943 10.1 11.4089 9.87875 11.0151 9.48492C10.6212 9.0911 10.4 8.55695 10.4 8C10.4 7.44305 10.6212 6.9089 11.0151 6.51508C11.4089 6.12125 11.943 5.9 12.5 5.9ZM12.5 14.9C15.47 14.9 18.6 16.36 18.6 17V18.1H6.4V17C6.4 16.36 9.53 14.9 12.5 14.9ZM12.5 4C10.29 4 8.5 5.79 8.5 8C8.5 10.21 10.29 12 12.5 12C14.71 12 16.5 10.21 16.5 8C16.5 5.79 14.71 4 12.5 4ZM12.5 13C9.83 13 4.5 14.34 4.5 17V20H20.5V17C20.5 14.34 15.17 13 12.5 13Z" fill="#445668" fill-opacity="0.6"/>
</svg>
