<svg width="25" height="24" viewBox="0 0 25 24" fill="none" xmlns="http://www.w3.org/2000/svg">
<path d="M4.5 21C4.21667 21 3.979 20.904 3.787 20.712C3.595 20.52 3.49934 20.2827 3.5 20V17C3.5 16.7167 3.596 16.479 3.788 16.287C3.98 16.095 4.21734 15.9993 4.5 16H7.5L11.5 12V8.8C10.9 8.58333 10.4167 8.22067 10.05 7.712C9.68334 7.20333 9.5 6.63267 9.5 6C9.5 5.16667 9.79167 4.45833 10.375 3.875C10.9583 3.29167 11.6667 3 12.5 3C13.3333 3 14.0417 3.29167 14.625 3.875C15.2083 4.45833 15.5 5.16667 15.5 6C15.5 6.63333 15.3167 7.20433 14.95 7.713C14.5833 8.22167 14.1 8.584 13.5 8.8V12L17.5 16H20.5C20.7833 16 21.021 16.096 21.213 16.288C21.405 16.48 21.5007 16.7173 21.5 17V20C21.5 20.2833 21.404 20.521 21.212 20.713C21.02 20.905 20.7827 21.0007 20.5 21H17.5C17.2167 21 16.979 20.904 16.787 20.712C16.595 20.52 16.4993 20.2827 16.5 20V17.95L12.5 13.95L8.5 17.95V20C8.5 20.2833 8.404 20.521 8.212 20.713C8.02 20.905 7.78267 21.0007 7.5 21H4.5Z" fill="#445668" fill-opacity="0.6"/>
</svg>
